# AST/ASF file generated using VICON BodyLanguage
# -----------------------------------------------
:version 1.10
:name VICON
:units
  mass 1.0
  length 0.45
  angle deg
:documentation
   .ast/.asf automatically generated from VICON data using
   VICON BodyBuilder and BodyLanguage model FoxedUp or BRILLIANT.MOD
:root
   order TX TY TZ RX RY RZ
   axis XYZ
   position 0 0 0  
   orientation 0 0 0 
:bonedata
  begin
     id 1 
     name lhipjoint
     direction 0.602128 -0.715006 0.355257 
     length 2.21237 
     axis 0 0 0  XYZ
  end
  begin
     id 2 
     name lfemur
     direction 0.34202 -0.939693 0  
     length 6.71649  
     axis 0 0 20  XYZ
    dof rx ry rz
    limits (-160.0 20.0)
           (-70.0 70.0)
           (-60.0 70.0)
  end
  begin
     id 3 
     name ltibia
     direction 0.34202 -0.939693 0   
     length 6.97123   
     axis 0 0 20   XYZ
    dof rx
    limits (-10.0 170.0)
  end
  begin
     id 4 
     name lfoot
     direction 0.0655697 -0.180151 0.981451   
     length 1.80924   
     axis -90 7.62852e-016 20   XYZ
    dof rx rz
    limits (-45.0 90.0)
           (-70.0 20.0)
  end
  begin
     id 5 
     name ltoes
     direction 1.53545e-011 -4.21827e-011 1   
     length 0.916331   
     axis -90 7.62852e-016 20   XYZ
    dof rx
    limits (-90.0 20.0)
  end
  begin
     id 6 
     name rhipjoint
     direction -0.625414 -0.698792 0.347201   
     length 2.2637  
     axis 0 0 0  XYZ 
  end
  begin
     id 7 
     name rfemur
     direction -0.34202 -0.939693 0   
     length 7.07595   
     axis 0 0 -20   XYZ
    dof rx ry rz
    limits (-160.0 20.0)
           (-70.0 70.0)
           (-70.0 60.0)
  end
  begin
     id 8 
     name rtibia
     direction -0.34202 -0.939693 0   
     length 7.22924   
     axis 0 0 -20   XYZ
    dof rx
    limits (-10.0 170.0)
 end
 begin
     id 9 
     name rfoot
     direction -0.0766747 -0.210662 0.974547   
     length 1.98482  
     axis -90 -7.62852e-016 -20   XYZ
    dof rx rz
    limits (-45.0 90.0)
           (-20.0 70.0)
  end
  begin
     id 10 
     name rtoes
     direction -1.53532e-011 -4.21867e-011 1   
     length 0.999842   
     axis -90 -7.62852e-016 -20   XYZ
    dof rx
    limits (-90.0 20.0)
  end
  begin
     id 11 
     name lowerback
     direction -0.0224668 0.997354 -0.0691422   
     length 2.09945   
     axis 0 0 0   XYZ
    dof rx ry rz
    limits (-20.0 45.0)
           (-30.0 30.0)
           (-30.0 30.0)
  end
  begin
     id 12 
     name upperback
     direction 0.0134698 0.998451 -0.0539888   
     length 2.09758   
     axis 0 0 0   XYZ
    dof rx ry rz
    limits (-20.0 45.0)
           (-30.0 30.0)
           (-30.0 30.0)
  end
  begin
     id 13 
     name thorax
     direction 0.0241905 0.99948 -0.0213333   
     length 2.10428   
     axis 0 0 0   XYZ
    dof rx ry rz
    limits (-20.0 45.0)
           (-30.0 30.0)
           (-30.0 30.0)
  end
  begin
     id 14 
     name lowerneck
     direction -0.00866847 0.995978 0.0891737   
     length 1.3959   
     axis 0 0 0   XYZ
    dof rx ry rz
    limits (-20.0 45.0)
           (-30.0 30.0)
           (-30.0 30.0)
  end
  begin
     id 15 
     name upperneck
     direction 0.0680679 0.992203 0.104404   
     length 1.39452   
     axis 0 0 0   XYZ
    dof rx ry rz
    limits (-20.0 45.0)
           (-30.0 30.0)
           (-30.0 30.0)
  end
  begin
     id 16
     name head
     direction 0.0242216 0.999358 0.0264054  
     length 1.40433  
     axis 0 0 0   XYZ
    dof rx ry rz
    limits (-20.0 45.0)
           (-30.0 30.0)
           (-30.0 30.0)
  end
  begin
     id 17 
     name lclavicle
     direction 0.929368 0.362991 -0.0671771  
     length 3.04887  
     axis 0 0 0   XYZ
    dof ry rz
    limits (-20.0 10.0)
           (0.0 20.0)
  end
  begin
     id 18 
     name lhumerus
     direction 1 -4.48967e-011 -7.13741e-028   
     length 4.77195   
     axis -180 -30 -90   XYZ
    dof rx ry rz
    limits (-60.0 90.0)
           (-90.0 90.0)
           (-90.0 90.0)
  end
  begin
     id 19
     name lradius
     direction 1 -4.48977e-011 3.60404e-027   
     length 2.98444   
     axis -180 -30 -90   XYZ
    dof rx
    limits (-10.0 170.0)
  end
  begin
     id 20
     name lwrist
     direction 1 -4.48997e-011 7.54877e-027   
     length 1.49222   
     axis -7.18178e-015 90 90   XYZ
    dof ry
    limits (-180.0 0.0)
 end
  begin
     id 21 
     name lhand
     direction 1 -4.489e-011 1.51105e-026   
     length 0.992285   
     axis -9.63605e-015 90 90   XYZ
    dof rx rz
    limits (-90.0 90.0)
           (-45.0 45.0)
  end
  begin
     id 22 
     name lfingers
     direction 1 -4.48998e-011 3.01948e-026   
     length 0.800006   
     axis -1.92718e-014 90 90   XYZ
    dof rx
    limits (0.0 90.0)
  end
  begin
     id 23
     name lthumb
     direction 0.707107 -6.34881e-011 0.707107   
     length 1.14865   
     axis -90 45 -3.53137e-014   XYZ
    dof rx rz
    limits (-45.0 45.0)
           (-45.0 45.0)
  end
  begin
     id 24 
     name rclavicle
     direction -0.945672 0.324529 0.0196374   
     length 3.4236  
     axis 0 0 0   XYZ 
    dof ry rz
    limits (-10.0 20.0)
           (-20.0 0.0)
  end
  begin
     id 25 
     name rhumerus
     direction -1 -4.4896e-011 1.02757e-029  
     length 4.62052   
     axis -180 30 90   XYZ
    dof rx ry rz
    limits (-90.0 60.0)
           (-90.0 90.0)
           (-90.0 90.0)
  end
  begin
     id 26 
     name rradius
     direction -1 -4.48982e-011 3.85962e-027   
     length 2.95332   
     axis -180 30 90   XYZ
    dof rx
    limits (-10.0 170.0)
  end
  begin
     id 27 
     name rwrist
     direction -1 -4.48961e-011 7.55118e-027   
     length 1.47666   
     axis -7.18178e-015 -90 -90   XYZ
    dof ry
    limits (-180.0 0.0)
  end
  begin
     id 28
     name rhand
     direction -1 -4.48984e-011 1.50994e-026   
     length 0.990956   
     axis -9.63605e-015 -90 -90   XYZ
    dof rx rz
    limits (-90.0 90.0)
           (-45.0 45.0)
  end
  begin
     id 29
     name rfingers
     direction -1 -4.4892e-011 3.02158e-026   
     length 0.798934   
     axis -1.92718e-014 -90 -90   XYZ
    dof rx
    limits (0.0 90.0)
  end
  begin
     id 30
     name rthumb
     direction -0.707107 -6.34916e-011 0.707107   
     length 1.14711   
     axis -90 -45 3.53137e-014   XYZ
    dof rx rz
    limits (-45.0 45.0)
           (-45.0 45.0)
  end
:hierarchy
  begin
    root lhipjoint rhipjoint lowerback
    lhipjoint lfemur
    lfemur ltibia
    ltibia lfoot
    lfoot ltoes
    rhipjoint rfemur
    rfemur rtibia
    rtibia rfoot
    rfoot rtoes
    lowerback upperback
    upperback thorax
    thorax lowerneck lclavicle rclavicle
    lowerneck upperneck
    upperneck head
    lclavicle lhumerus
    lhumerus lradius
    lradius lwrist
    lwrist lhand lthumb
    lhand lfingers
    rclavicle rhumerus
    rhumerus rradius
    rradius rwrist
    rwrist rhand rthumb
    rhand rfingers
  end

#!OML:ASF H:\ManfredObstacles\Project 1\Capture day 1\Session 1\Male.ASF
:FULLY-SPECIFIED
:DEGREES
353
root 18.8804 16.3384 7.10821 221.384 86.3486 207.456
lowerback -12.4048 -2.13503 -2.36225
upperback 0.388269 -2.59522 1.58031
thorax 7.56685 -1.38009 2.52373
lowerneck -1.68052 -3.02385 -4.58923
upperneck -7.8878 -3.00678 13.7252
head -1.72166 -1.58234 4.92069
rclavicle 1.90958e-014 -2.78299e-015
rhumerus -35.9512 -21.3698 -74.6239
rradius 26.3895
rwrist 33.1312
rhand -0.295159 -3.86149
rfingers 7.12502
rthumb 25.3076 -32.2026
lclavicle 1.90958e-014 -2.78299e-015
lhumerus -23.3383 4.59162 90.7096
lradius 23.7552
lwrist -21.5335
lhand -9.83585 8.41208
lfingers 7.12502
lthumb 16.1417 37.7599
rfemur -31.9721 -7.11376 24.2839
rtibia 29.547
rfoot -8.79154 14.1368
rtoes 21.3468
lfemur 7.67022 0.270378 -16.3596
ltibia 4.45278e-014
lfoot 5.48296 -16.8094
ltoes -1.08415
354
root 18.8816 16.3381 7.09983 223.124 86.354 209.203
lowerback -12.3558 -2.13655 -2.23827
upperback 0.424592 -2.6166 1.57254
thorax 7.57315 -1.38631 2.4421
lowerneck -1.79724 -2.98732 -4.48811
upperneck -7.81933 -2.96515 13.6661
head -1.68941 -1.55683 4.88258
rclavicle -2.70596e-014 2.95195e-014
rhumerus -36.0934 -20.9805 -74.8049
rradius 26.5281
rwrist 32.8468
rhand -0.258091 -4.30504
rfingers 7.12502
rthumb 25.3431 -32.6411
lclavicle -2.70596e-014 2.95195e-014
lhumerus -23.3513 5.40397 90.5127
lradius 23.2131
lwrist -22.4892
lhand -9.74348 8.34333
lfingers 7.12502
lthumb 16.2307 37.6839
rfemur -31.9843 -7.18473 24.3883
rtibia 29.5662
rfoot -8.75656 14.2943
rtoes 21.3737
lfemur 7.70278 0.348118 -16.2835
ltibia -3.49861e-014
lfoot 5.52186 -16.828
ltoes -0.873628
355
root 18.8824 16.3358 7.09084 226.243 86.2689 212.269
lowerback -12.3489 -2.11164 -2.02088
upperback 0.417743 -2.61872 1.62652
thorax 7.55433 -1.37946 2.37656
lowerneck -1.9515 -2.94565 -4.49288
upperneck -7.69919 -2.91892 13.6684
head -1.63271 -1.52468 4.87991
rclavicle -4.57205e-015 -1.81888e-014
rhumerus -36.2498 -20.7932 -74.7831
rradius 26.5227
rwrist 32.6203
rhand -0.16098 -4.46915
rfingers 7.12502
rthumb 25.4362 -32.792
lclavicle -4.57205e-015 -1.81888e-014
lhumerus -23.3748 6.113 90.341
lradius 22.5805
lwrist -23.3597
lhand -9.70322 8.16922
lfingers 7.12502
lthumb 16.2694 37.5066
rfemur -32.0284 -7.29746 24.6466
rtibia 29.4968
rfoot -8.65302 14.4945
rtoes 21.5914
lfemur 7.66105 0.429926 -16.0912
ltibia -3.18055e-014
lfoot 5.49965 -16.8307
ltoes -1.11075
356
root 18.8819 16.3336 7.08454 228.505 86.1948 214.504
lowerback -12.3143 -2.06259 -1.88703
upperback 0.407225 -2.5762 1.67219
thorax 7.51686 -1.35389 2.35873
lowerneck -2.02953 -2.92375 -4.53782
upperneck -7.64977 -2.88973 13.7155
head -1.60601 -1.5052 4.90013
rclavicle -1.99157e-014 1.53064e-014
rhumerus -36.3938 -20.9238 -74.6173
rradius 26.3743
rwrist 32.5837
rhand -0.0592519 -4.48915
rfingers 7.12502
rthumb 25.5336 -32.798
lclavicle -1.99157e-014 1.53064e-014
lhumerus -23.4228 6.50402 90.2399
lradius 21.9365
lwrist -23.8375
lhand -9.71322 8.05498
lfingers 7.12502
lthumb 16.2598 37.3932
rfemur -32.0163 -7.34909 24.8367
rtibia 29.3722
rfoot -8.54083 14.6511
rtoes 21.7977
lfemur 7.63584 0.489953 -15.9489
ltibia -1.27222e-014
lfoot 5.43952 -16.8283
ltoes -1.13766
357
root 18.8815 16.3372 7.08114 229.42 86.1631 215.401
lowerback -12.294 -2.06492 -1.87567
upperback 0.407229 -2.58386 1.70924
thorax 7.5071 -1.35786 2.3908
lowerneck -2.02226 -2.8873 -4.61279
upperneck -7.65682 -2.83663 13.7642
head -1.61174 -1.47811 4.92816
rclavicle 7.96381e-015 -9.0447e-015
rhumerus -36.4502 -21.0411 -74.5192
rradius 26.1623
rwrist 32.6215
rhand -0.0594132 -4.4447
rfingers 7.12502
rthumb 25.5335 -32.7536
lclavicle 7.96381e-015 -9.0447e-015
lhumerus -23.539 7.27807 90.0594
lradius 21.3208
lwrist -24.5909
lhand -9.72894 8.0467
lfingers 7.12502
lthumb 16.2447 37.3862
rfemur -31.9695 -7.28003 24.8875
rtibia 29.2506
rfoot -8.48589 14.6462
rtoes 21.79
lfemur 7.59223 0.515952 -15.8633
ltibia -9.54166e-015
lfoot 5.6195 -16.7918
ltoes 0.274506
358
root 18.8804 16.3403 7.07767 231.032 86.22 216.917
lowerback -12.3224 -2.1087 -1.93361
upperback 0.345116 -2.63841 1.80285
thorax 7.46754 -1.387 2.51279
lowerneck -1.94067 -2.81465 -4.78174
upperneck -7.65943 -2.74067 13.7928
head -1.63154 -1.43085 4.96701
rclavicle 1.38652e-014 2.76311e-014
rhumerus -36.5394 -21.0955 -74.3318
rradius 26.0081
rwrist 32.8807
rhand -0.0996852 -4.40958
rfingers 7.12502
rthumb 25.4949 -32.724
lclavicle 1.38652e-014 2.76311e-014
lhumerus -23.778 8.46907 89.8386
lradius 20.7482
lwrist -25.5245
lhand -9.76886 8.24691
lfingers 7.12502
lthumb 16.2062 37.5895
rfemur -32.0461 -7.10898 24.9046
rtibia 29.1807
rfoot -8.48735 14.5501
rtoes 21.5232
lfemur 7.45526 0.637645 -15.8177
ltibia 2.54444e-014
lfoot 5.84087 -16.7385
ltoes 1.48518
359
root 18.8793 16.338 7.07004 233.601 86.3728 219.355
lowerback -12.3736 -2.13513 -1.99728
upperback 0.253654 -2.66793 1.8997
thorax 7.40851 -1.40332 2.64604
lowerneck -1.91149 -2.71761 -4.95513
upperneck -7.57874 -2.62328 13.7869
head -1.62128 -1.3686 4.99398
rclavicle 1.41386e-014 1.34677e-014
rhumerus -36.6376 -21.1918 -74.0678
rradius 25.878
rwrist 33.2028
rhand -0.146293 -4.4023
rfingers 7.12502
rthumb 25.4502 -32.7231
lclavicle 1.41386e-014 1.34677e-014
lhumerus -24.0742 9.7106 89.5681
lradius 20.1405
lwrist -26.5391
lhand -9.7715 8.36712
lfingers 7.12502
lthumb 16.2037 37.7099
rfemur -32.2161 -7.01667 24.9214
rtibia 29.1636
rfoot -8.48677 14.6577
rtoes 21.2251
lfemur 7.33665 0.86506 -15.8604
ltibia -3.18055e-015
lfoot 5.87082 -16.7374
ltoes 1.88231
360
root 18.8803 16.3362 7.05936 234.503 86.5796 220.204
lowerback -12.4123 -2.14752 -2.10325
upperback 0.225219 -2.66858 1.91049
thorax 7.4057 -1.40729 2.71667
lowerneck -1.84241 -2.66432 -5.13871
upperneck -7.60625 -2.54692 13.8648
head -1.64346 -1.33126 5.05065
rclavicle 1.61637e-014 1.86858e-014
rhumerus -36.6817 -21.5797 -73.7875
rradius 25.6976
rwrist 33.6501
rhand -0.231868 -4.31915
rfingers 7.12502
rthumb 25.3683 -32.6516
lclavicle 1.61637e-014 1.86858e-014
lhumerus -24.3006 11.1316 89.1121
lradius 19.4483
lwrist -27.9763
lhand -9.75073 8.24064
lfingers 7.12502
lthumb 16.2237 37.5818
rfemur -32.3004 -7.00076 24.7848
rtibia 29.1687
rfoot -8.46328 14.8196
rtoes 21.144
lfemur 7.34254 1.03129 -16.0541
ltibia 4.13472e-014
lfoot 5.78054 -16.7838
ltoes 2.22276
361
root 18.8811 16.3372 7.05122 234.485 86.8079 220.117
lowerback -12.507 -2.09717 -2.18694
upperback 0.222998 -2.58125 1.81913
thorax 7.45032 -1.3664 2.68104
lowerneck -1.81518 -2.69223 -5.07792
upperneck -7.67082 -2.58777 13.7308
head -1.6668 -1.35398 5.00027
rclavicle 2.45375e-015 1.02871e-014
rhumerus -36.7893 -22.157 -73.5761
rradius 25.6302
rwrist 34.0497
rhand -0.280133 -4.22274
rfingers 7.12502
rthumb 25.322 -32.5618
lclavicle 2.45375e-015 1.02871e-014
lhumerus -24.4974 12.3476 88.5605
lradius 18.8274
lwrist -29.3939
lhand -9.5968 8.20483
lfingers 7.12502
lthumb 16.3719 37.5338
rfemur -32.3963 -6.98674 24.5894
rtibia 29.1762
rfoot -8.35534 14.9278
rtoes 21.3578
lfemur 7.29397 1.16421 -16.2965
ltibia 3.81667e-014
lfoot 5.7099 -16.7966
ltoes 2.2049
362
root 18.8806 16.3384 7.04579 236.177 86.8599 221.742
lowerback -12.6083 -2.00743 -2.08253
upperback 0.223146 -2.47079 1.7606
thorax 7.49284 -1.30752 2.57838
lowerneck -1.79798 -2.7653 -4.97262
upperneck -7.73853 -2.68967 13.5841
head -1.68468 -1.40743 4.93832
rclavicle -2.81653e-014 -1.12313e-014
rhumerus -36.9153 -21.9725 -73.7497
rradius 25.8959
rwrist 33.4831
rhand -0.210209 -4.36396
rfingers 7.12502
rthumb 25.389 -32.6935
lclavicle -2.81653e-014 -1.12313e-014
lhumerus -24.7151 13.059 88.1159
lradius 18.2824
lwrist -30.2975
lhand -9.4297 8.26097
lfingers 7.12502
lthumb 16.5328 37.5766
rfemur -32.4968 -7.02308 24.6507
rtibia 29.1826
rfoot -8.30361 15.0337
rtoes 21.1959
lfemur 7.20884 1.27249 -16.2938
ltibia -6.36111e-015
lfoot 5.72413 -16.8038
ltoes 2.16592
363
root 18.8802 16.3383 7.04156 237.891 86.8001 223.45
lowerback -12.6395 -1.98548 -1.99568
upperback 0.236497 -2.45607 1.78997
thorax 7.52139 -1.29793 2.56242
lowerneck -1.85999 -2.79798 -4.98937
upperneck -7.69436 -2.74106 13.5487
head -1.65704 -1.42901 4.92861
rclavicle 8.43592e-015 -3.52843e-015
rhumerus -37.026 -21.7656 -73.8579
rradius 26.3095
rwrist 33.1015
rhand 0.0552014 -4.48183
rfingers 7.12502
rthumb 25.6432 -32.775
lclavicle 8.43592e-015 -3.52843e-015
lhumerus -24.9425 13.5686 87.7341
lradius 17.8012
lwrist -30.8625
lhand -9.37661 8.28194
lfingers 7.12502
lthumb 16.5839 37.5934
rfemur -32.5234 -7.09076 24.8212
rtibia 29.1857
rfoot -8.4084 15.0777
rtoes 20.3352
lfemur 7.20037 1.31963 -16.1768
ltibia 3.49861e-014
lfoot 5.70408 -16.8381
ltoes 2.03633
